<svg xmlns="http://www.w3.org/2000/svg" viewBox="0 0 1675.23 387.82"><defs><style>.cls-1{fill:#fff;}.cls-2{fill:#ccc;}</style></defs><g id="Vrstva_2" data-name="Vrstva 2"><g id="Vrstva_1-2" data-name="Vrstva 1"><path class="cls-1" d="M320.62,125.24c0-28.9,25.05-52.51,53.95-52.51,31.31,0,52,19.75,53.95,52.51v9.15H347.11c3.38,12,14,20.23,27.46,20.23,8.67,0,13.49-2.41,20.71-9.15l16.38,16.86a52.06,52.06,0,0,1-37.09,15.41C343.26,177.74,320.62,156.55,320.62,125.24ZM402,113.68c-3.86-11.57-13.49-19.27-27.46-19.27-13.49,0-23.12,8.19-27,19.27Z"/><path class="cls-1" d="M455.72,0h27V122.35l43.84-47.21h31.78l-26,27.94,26,72.25h-27l-18.78-51.06-29.87,32.28v18.78h-27Z"/><path class="cls-1" d="M573.72,125.24c0-28.9,25-52.51,53.94-52.51,31.31,0,54,21.2,54,52.51,0,28.9-25.05,52.5-54,52.5C596.35,177.74,573.72,156.55,573.72,125.24Zm80.92,0c0-15.9-11.08-27.46-27-27.46-15.41,0-27,11.56-27,27.46,0,15.41,11.56,27.45,27,27.45C643.56,152.69,654.64,140.65,654.64,125.24Z"/><path class="cls-1" d="M702.8,125.24c0-31.31,27-52.51,54.43-52.51,31.31,0,53.46,21.2,53.46,52.51v50.09h-27V125.24c0-15.9-11.08-27.46-27-27.46-15.41,0-27,11.56-27,27.46v50.09h-27Z"/><path class="cls-1" d="M831.87,125.24c0-28.9,25-52.51,54-52.51,31.31,0,53.95,21.2,53.95,52.51,0,28.9-25,52.5-53.95,52.5C854.51,177.74,831.87,156.55,831.87,125.24Zm80.93,0c0-15.9-11.08-27.46-27-27.46-15.41,0-27,11.56-27,27.46,0,15.41,11.56,27.45,27,27.45C901.72,152.69,912.8,140.65,912.8,125.24Z"/><path class="cls-1" d="M961,125.24c0-31.31,27-52.51,54.43-52.51,17.34,0,31.31,6.27,40.95,16.86a56.12,56.12,0,0,1,40-16.86c31.3,0,53.46,21.2,53.46,52.51v50.09h-27V125.24c0-15.9-11.56-27.46-27-27.46-15.89,0-27,11.56-27,27.46v50.09h-27V125.24c0-15.9-11.07-27.46-27-27.46-15.41,0-27,11.56-27,27.46v50.09H961Z"/><path class="cls-1" d="M1179.61,47.2c0-9.15,7.71-16.37,16.86-16.37a16.24,16.24,0,0,1,16.38,16.37c0,9.16-7.23,16.86-16.38,16.86A17.06,17.06,0,0,1,1179.61,47.2Zm2.89,27.94h27V175.33h-27Z"/><path class="cls-1" d="M1237.41,125.24c0-28.9,25-52.51,53.95-52.51,14.93,0,27,4.34,37.57,14.94l-17.82,17.82a28.94,28.94,0,0,0-19.75-7.71c-15.42,0-27,11.56-27,27.46,0,15.41,11.56,27.45,27,27.45a28.15,28.15,0,0,0,19.26-8.19l17.83,17.34a51.38,51.38,0,0,1-37.09,15.9C1260.05,177.74,1237.41,156.55,1237.41,125.24Z"/><path class="cls-1" d="M1354.93,0h27V122.35l43.83-47.21h31.79l-26,27.94,26,72.25h-27l-18.79-51.06-29.86,32.28v18.78h-27Z"/><path class="cls-1" d="M1472.92,125.24c0-28.9,25-52.51,53.95-52.51,31.31,0,54,21.2,54,52.51v50.09h-26.49v-8.67c-6.27,6.74-17.34,11.08-29.87,11.08C1494.12,177.74,1472.92,156.55,1472.92,125.24Zm80.92,0c0-15.9-11.07-27.46-27-27.46-15.41,0-27,11.56-27,27.46,0,15.41,11.56,27.45,27,27.45C1542.77,152.69,1553.84,140.65,1553.84,125.24Zm-52.72-84.68,47-19.41,10.05,23.33-46.84,19.58Z"/><path class="cls-1" d="M333.15,310.28H319.66v-25h13.49V210.09h27v75.14h13.49v25H360.12v75.14h-27Z"/><path class="cls-1" d="M396.72,322.8c0-22.16,15.89-37.57,37.57-37.57h9.63v25h-7.7c-7.23,0-12.53,4.81-12.53,12.52v62.62h-27Z"/><path class="cls-1" d="M461.26,335.32c0-28.9,25-52.5,53.94-52.5,31.31,0,53.95,21.19,53.95,52.5v50.1H542.66v-8.67c-6.26,6.74-17.34,11.07-29.87,11.07C482.45,387.82,461.26,366.63,461.26,335.32Zm80.92,0c0-15.89-11.08-27.45-27-27.45-15.41,0-27,11.56-27,27.45,0,15.42,11.56,27.46,27,27.46C531.1,362.78,542.18,350.74,542.18,335.32Z"/><path class="cls-1" d="M595.15,335.32c0-31.31,27-52.5,54.43-52.5,31.31,0,53.47,21.19,53.47,52.5v50.1h-27v-50.1c0-15.89-11.07-27.45-27-27.45-15.41,0-27,11.56-27,27.45v50.1h-27Z"/><path class="cls-1" d="M731.93,362.78h67a7.84,7.84,0,0,0,8.19-8.19c0-4.34-3.38-7.71-8.19-7.71h-39A30.73,30.73,0,0,1,729,316.06c0-16.38,14-30.83,30.83-30.83H819.6v22.64H762.28c-4.33,0-8.19,3.37-8.19,7.7a7.84,7.84,0,0,0,8.19,8.19h39a30.43,30.43,0,0,1,30.82,30.83c0,15.9-14,30.83-30.82,30.83H731.93Z"/><path class="cls-1" d="M862.94,310.28H849.45v-25h13.49V247.66c0-21.92,15.66-37.57,37.57-37.57h4.1v25h-2.17c-7.47,0-12.53,5.06-12.53,12.53v37.57H903.4v25H889.91v75.14h-27Z"/><path class="cls-1" d="M922.9,335.32c0-28.9,25.05-52.5,54-52.5,31.31,0,53.95,21.19,53.95,52.5,0,28.9-25,52.5-53.95,52.5C945.54,387.82,922.9,366.63,922.9,335.32Zm80.92,0c0-15.89-11.08-27.45-27-27.45-15.42,0-27,11.56-27,27.45,0,15.42,11.56,27.46,27,27.46C992.74,362.78,1003.82,350.74,1003.82,335.32Z"/><path class="cls-1" d="M1052,322.8c0-22.16,15.9-37.57,37.57-37.57h9.64v25h-7.71c-7.23,0-12.53,4.81-12.53,12.52v62.62h-27Z"/><path class="cls-1" d="M1121.33,335.32c0-31.31,27-52.5,54.43-52.5,17.34,0,31.31,6.26,41,16.86a56.08,56.08,0,0,1,40-16.86c31.3,0,53.46,21.19,53.46,52.5v50.1h-27v-50.1c0-15.89-11.56-27.45-27-27.45-15.89,0-27,11.56-27,27.45v50.1h-27v-50.1c0-15.89-11.08-27.45-27-27.45-15.41,0-27,11.56-27,27.45v50.1h-27Z"/><path class="cls-1" d="M1331.33,335.32c0-28.9,25-52.5,54-52.5,31.3,0,53.94,21.19,53.94,52.5v50.1h-26.49v-8.67c-6.26,6.74-17.34,11.07-29.86,11.07C1352.52,387.82,1331.33,366.63,1331.33,335.32Zm80.92,0c0-15.89-11.08-27.45-27-27.45-15.42,0-27,11.56-27,27.45,0,15.42,11.56,27.46,27,27.46C1401.17,362.78,1412.25,350.74,1412.25,335.32Z"/><path class="cls-1" d="M1460.41,335.32c0-28.9,25-52.5,53.95-52.5,14.93,0,27,4.33,37.57,14.93l-17.83,17.82a28.93,28.93,0,0,0-19.74-7.7c-15.42,0-27,11.56-27,27.45,0,15.42,11.56,27.46,27,27.46a28.15,28.15,0,0,0,19.26-8.19l17.82,17.34a51.39,51.39,0,0,1-37.08,15.89C1483.05,387.82,1460.41,366.63,1460.41,335.32Z"/><path class="cls-1" d="M1567.33,335.32c0-28.9,25.05-52.5,54-52.5,31.31,0,52,19.75,54,52.5v9.15h-81.41c3.37,12,14,20.24,27.46,20.24,8.67,0,13.49-2.42,20.71-9.16l16.38,16.86a52.08,52.08,0,0,1-37.09,15.41C1590,387.82,1567.33,366.63,1567.33,335.32Zm81.4-11.56c-3.85-11.56-13.48-19.26-27.45-19.26-13.49,0-23.12,8.18-27,19.26Z"/><path class="cls-1" d="M120.53,3.42a124,124,0,0,0-46,8.79,69.61,69.61,0,0,1,9.72-.66c43.48,0,78.71,37.21,78.71,83.16A86.38,86.38,0,0,1,154,133.1v0c-.27.54-.54,1.05-.81,1.56l-9.48,14.38c-.24.33-.51.67-.78,1l-.21.21-2.35,2.64-81.26,89.9-.06-.06-55.6,62H113.88L218.34,187.19a110.41,110.41,0,0,0,6.26-9.2A112.29,112.29,0,0,0,241,119.47C241,55.38,187.08,3.42,120.53,3.42Z"/><rect class="cls-2" x="3.52" y="304.65" width="240.57" height="82.47"/><path class="cls-2" d="M154,133.1a36.56,36.56,0,1,0-45.64,18.44l-22,26.27L54.22,216.38C21.54,195.62,0,160,0,119.47A111.56,111.56,0,0,1,6.35,82.25v0c11.16-31.74,36.19-57.31,68.14-70a69.61,69.61,0,0,1,9.72-.66c43.48,0,78.71,37.21,78.71,83.16A86.38,86.38,0,0,1,154,133.1Z"/></g></g></svg>